<svg width="675" height="88" viewBox="0 0 675 88" fill="none" xmlns="http://www.w3.org/2000/svg">
<path d="M3.96875 65.7031C1.9375 65.7031 0.921875 65.125 0.921875 63.9688C0.921875 63.0625 1.48438 62.6094 2.60938 62.6094L4.90625 62.8438C6.78125 62.8438 8.04688 61.7969 8.70312 59.7031C9.23438 57.9219 9.5 54.7344 9.5 50.1406V17.0469C9.5 12.4531 9.28125 9.45312 8.84375 8.04688C8.40625 6.60937 7.875 5.64063 7.25 5.14062C6.65625 4.60938 5.875 4.34375 4.90625 4.34375L2.60938 4.53125C1.48438 4.53125 0.921875 4.07812 0.921875 3.17188C0.921875 2.01562 1.78125 1.4375 3.5 1.4375C5.21875 1.4375 6.84375 1.5625 8.375 1.8125C9.9375 2.0625 11.6562 2.1875 13.5312 2.1875C15.4375 2.1875 17.1094 2.0625 18.5469 1.8125C20.0156 1.5625 21.2969 1.4375 22.3906 1.4375C29.0781 1.4375 34.4844 3.46875 38.6094 7.53125C42.3594 11.25 44.2344 15.7344 44.2344 20.9844C44.2344 25.8281 42.3594 30.0469 38.6094 33.6406C34.9219 37.1406 30.7031 38.8906 25.9531 38.8906C22.2969 38.8906 19.7969 38.1719 18.4531 36.7344C18.0469 36.2969 17.8438 35.8281 17.8438 35.3281C17.8438 34.7969 17.9844 34.4062 18.2656 34.1562C18.5781 33.875 18.9531 33.7344 19.3906 33.7344C19.8281 33.7344 20.4375 34.0312 21.2188 34.625C22.4375 35.5 23.9531 35.9375 25.7656 35.9375C27.5781 35.9375 29.1094 35.5938 30.3594 34.9062C31.6406 34.1875 32.7188 33.1875 33.5938 31.9062C35.4062 29.25 36.3125 25.6719 36.3125 21.1719C36.3125 16.1094 34.9062 12.0781 32.0938 9.07812C29.375 6.17188 25.8438 4.71875 21.5 4.71875C19.9062 4.71875 18.7344 4.9375 17.9844 5.375C17.2344 5.8125 16.8594 6.5625 16.8594 7.625V50.1406C16.8594 54.8594 17.0625 57.9062 17.4688 59.2812C17.9062 60.625 18.4219 61.5625 19.0156 62.0938C19.6406 62.5938 20.4531 62.8438 21.4531 62.8438L23.7031 62.6094C24.8281 62.6094 25.3906 63.0625 25.3906 63.9688C25.3906 65.125 24.3906 65.7031 22.3906 65.7031C21.3594 65.7031 20.2656 65.6094 19.1094 65.4219C15.3594 64.8281 12.1406 64.7188 9.45312 65.0938C6.79688 65.5 4.96875 65.7031 3.96875 65.7031ZM94.4844 58.7188C95.3906 58.7188 95.8438 59.1406 95.8438 59.9844C95.8438 60.7969 94.9375 61.5781 93.125 62.3281C91.3125 63.0781 90.0469 63.7656 89.3281 64.3906C88.6094 64.9844 88.0781 65.4219 87.7344 65.7031C87.3906 66.0156 86.9844 66.1719 86.5156 66.1719C85.5781 66.1719 84.7969 65.7812 84.1719 65C83.5469 64.2188 82.7031 62.5469 81.6406 59.9844C79.8594 62.0156 77.6875 63.5625 75.125 64.625C72.5938 65.6562 70.0781 66.1719 67.5781 66.1719C62.8594 66.1719 59.2031 64.9688 56.6094 62.5625C54.0156 60.1562 52.7188 56.8594 52.7188 52.6719C52.7188 48.4844 54.6719 45.0938 58.5781 42.5C62.5156 39.875 67.5312 38.5625 73.625 38.5625C75.4375 38.5625 77.8281 38.875 80.7969 39.5V35.8438C80.7969 27.8125 77.4062 23.7969 70.625 23.7969C67.0312 23.7969 64.3906 25.4531 62.7031 28.7656C61.2344 31.7344 59.7969 33.2188 58.3906 33.2188C57.3594 33.2188 56.4531 32.9219 55.6719 32.3281C54.9219 31.7344 54.5469 30.9844 54.5469 30.0781C54.5469 29.1719 55.0156 28.1719 55.9531 27.0781C56.8906 25.9531 58.1406 24.9375 59.7031 24.0312C63.3906 21.875 67.4375 20.7969 71.8438 20.7969C79.6562 20.7969 84.7031 23.3438 86.9844 28.4375C87.8281 30.25 88.25 32.4688 88.25 35.0938V53.7969C88.25 56.2031 88.4844 57.75 88.9531 58.4375C89.4219 59.125 90.0781 59.4688 90.9219 59.4688C91.7656 59.4688 92.4531 59.3438 92.9844 59.0938C93.5156 58.8438 94.0156 58.7188 94.4844 58.7188ZM80.7969 43.8594C78.5469 42.5781 75.7031 41.9375 72.2656 41.9375C68.8281 41.9375 66.0625 42.7969 63.9688 44.5156C61.9062 46.2344 60.875 48.5469 60.875 51.4531C60.875 54.3281 61.6719 56.7344 63.2656 58.6719C64.8594 60.5781 66.9062 61.5312 69.4062 61.5312C74.75 61.5312 78.5938 59.7812 80.9375 56.2812C80.8438 55.4062 80.7969 54.4375 80.7969 53.375V43.8594ZM105.031 62.4688C103.594 61.4375 102.469 60.3125 101.656 59.0938C100.844 57.8438 100.438 56.875 100.438 56.1875C100.438 55.4688 100.531 54.9375 100.719 54.5938C100.938 54.2188 101.219 53.875 101.562 53.5625C102.375 52.7812 103.156 52.3906 103.906 52.3906C104.688 52.3906 105.281 52.5781 105.688 52.9531C106.094 53.2969 106.469 54 106.812 55.0625C107.188 56.0938 107.703 57.0938 108.359 58.0625C109.047 59.0312 109.859 59.875 110.797 60.5938C112.828 62.125 115.312 62.8906 118.25 62.8906C120.844 62.8906 123.047 62.25 124.859 60.9688C126.766 59.6562 127.719 58.0156 127.719 56.0469C127.719 54.0469 126.859 52.2969 125.141 50.7969C123.297 49.2031 120.562 47.6875 116.938 46.25C113.312 44.7812 110.734 43.5469 109.203 42.5469C107.672 41.5469 106.422 40.4844 105.453 39.3594C103.609 37.2031 102.688 34.7344 102.688 31.9531C102.688 28.7656 104.125 26.1094 107 23.9844C109.906 21.8594 113.547 20.7969 117.922 20.7969C121.703 20.7969 124.891 21.5938 127.484 23.1875C129.734 24.5938 130.859 26.0781 130.859 27.6406C130.859 28.4531 130.438 29.1562 129.594 29.75C128.781 30.3125 128 30.5938 127.25 30.5938C126.531 30.5938 125.969 30.4531 125.562 30.1719C125.156 29.8594 124.547 29.0781 123.734 27.8281C122.141 25.3594 119.719 24.125 116.469 24.125C112.812 24.125 110.391 25.2188 109.203 27.4062C108.859 28.0312 108.688 28.7031 108.688 29.4219C108.688 30.1406 108.828 30.8438 109.109 31.5312C109.422 32.1875 109.984 32.875 110.797 33.5938C112.516 35.0312 115.672 36.7031 120.266 38.6094C129.266 42.3281 133.766 47.0938 133.766 52.9062C133.766 56.8125 132.188 60 129.031 62.4688C125.844 64.9375 121.75 66.1719 116.75 66.1719C112.312 66.1719 108.406 64.9375 105.031 62.4688ZM167.703 25.4375C167.703 26.2812 167.203 26.7031 166.203 26.7031L152.891 26.5625V52.5312C152.891 57.375 154.062 60.25 156.406 61.1562C157.125 61.4375 157.969 61.5781 158.938 61.5781C159.906 61.5781 160.781 61.4219 161.562 61.1094C162.375 60.7656 163.094 60.4062 163.719 60.0312C164.344 59.6562 164.875 59.3125 165.312 59C165.75 58.6562 166.156 58.4844 166.531 58.4844C166.938 58.4844 167.297 58.7031 167.609 59.1406C167.922 59.5781 168.078 60.0156 168.078 60.4531C168.078 61.5469 166.688 62.8594 163.906 64.3906C161.781 65.5781 159.109 66.1719 155.891 66.1719C152.672 66.1719 150.156 65.0312 148.344 62.75C146.531 60.4375 145.625 57.25 145.625 53.1875V26.4219H142.766C140.516 26.4219 139.391 25.8438 139.391 24.6875C139.391 23.8438 140.016 23.2656 141.266 22.9531C142.516 22.6406 143.594 22.0938 144.5 21.3125C145.406 20.5 146.141 19.5938 146.703 18.5938C147.297 17.5625 147.766 16.5 148.109 15.4062C148.453 14.3125 148.766 13.3125 149.047 12.4062C149.734 10.3438 150.516 9.3125 151.391 9.3125C152.391 9.3125 152.891 10.2031 152.891 11.9844V22.5781L166.062 22.2969C166.719 22.2969 167.234 23.0781 167.609 24.6406C167.672 24.9844 167.703 25.25 167.703 25.4375ZM175.25 65.7031C173.156 65.7031 172.109 65.125 172.109 63.9688C172.109 63.0625 172.688 62.6094 173.844 62.6094L176.188 62.8438C176.906 62.8438 177.5 62.7188 177.969 62.4688C178.438 62.1875 178.797 61.6094 179.047 60.7344C179.547 59.1406 179.797 55.6094 179.797 50.1406V36.125C179.797 32.9375 179.594 30.9531 179.188 30.1719C178.812 29.3594 178.344 28.8125 177.781 28.5312C177.25 28.2188 176.359 27.9688 175.109 27.7812C173.891 27.5938 173.281 27.1094 173.281 26.3281C173.281 25.6094 174.078 25.0938 175.672 24.7812C179.391 24 181.953 23.2188 183.359 22.4375C185.266 21.3438 186.562 20.7969 187.25 20.7969C187.969 20.7969 188.328 21.1562 188.328 21.875C188.328 22.2188 188.25 22.5781 188.094 22.9531C187.969 23.3281 187.828 23.7812 187.672 24.3125C187.422 25.375 187.234 27.375 187.109 30.3125C189.828 25.75 193.109 22.9062 196.953 21.7812C198.078 21.4375 199.328 21.2656 200.703 21.2656C202.109 21.2656 203.344 21.7656 204.406 22.7656C205.5 23.7656 206.047 24.8281 206.047 25.9531C206.047 27.0781 205.922 27.9062 205.672 28.4375C205.422 28.9688 205.109 29.4219 204.734 29.7969C203.922 30.6094 203.188 31.0156 202.531 31.0156C201.906 31.0156 201.422 30.8594 201.078 30.5469C200.734 30.2031 200.344 29.5938 199.906 28.7188C199.125 27.1562 198.25 26.375 197.281 26.375C196.312 26.375 195.391 26.5938 194.516 27.0312C193.641 27.4375 192.766 28.0625 191.891 28.9062C189.984 30.6875 188.375 33.1094 187.062 36.1719V50.1406C187.062 56.0781 187.219 59.5781 187.531 60.6406C187.875 61.6719 188.281 62.2969 188.75 62.5156C189.25 62.7031 189.922 62.7969 190.766 62.7969L194.938 62.4219C195.562 62.4219 196.062 62.5781 196.438 62.8906C196.812 63.1719 197 63.5312 197 63.9688C197 65.125 195.859 65.7031 193.578 65.7031L183.688 65C182.094 65 180.578 65.1094 179.141 65.3281C177.734 65.5781 176.438 65.7031 175.25 65.7031ZM226.156 6.82812C226.156 8.14062 225.703 9.26562 224.797 10.2031C223.922 11.1094 222.719 11.5625 221.188 11.5625C219.688 11.5625 218.516 11.125 217.672 10.25C216.859 9.34375 216.453 8.375 216.453 7.34375C216.453 6.28125 216.594 5.46875 216.875 4.90625C217.156 4.34375 217.516 3.85938 217.953 3.45312C218.922 2.60938 220.094 2.1875 221.469 2.1875C222.875 2.1875 224 2.625 224.844 3.5C225.719 4.375 226.156 5.48437 226.156 6.82812ZM213.266 65.7031C211.172 65.7031 210.125 65.125 210.125 63.9688C210.125 63.0625 210.703 62.6094 211.859 62.6094L214.203 62.8438C214.922 62.8438 215.516 62.7188 215.984 62.4688C216.453 62.1875 216.828 61.6094 217.109 60.7344C217.609 59.1719 217.859 55.6406 217.859 50.1406V36.0312C217.859 32.9375 217.641 30.9844 217.203 30.1719C216.797 29.3281 216.328 28.7656 215.797 28.4844C215.266 28.1719 214.375 27.9375 213.125 27.7812C211.906 27.5938 211.297 27.0938 211.297 26.2812C211.297 25.5625 212.109 25.0312 213.734 24.6875C217.453 23.9375 220.016 23.1719 221.422 22.3906C223.359 21.2969 224.688 20.75 225.406 20.75C226.125 20.75 226.484 21.1094 226.484 21.8281C226.484 22.1719 226.422 22.5312 226.297 22.9062C225.578 25.0625 225.219 29.3125 225.219 35.6562V50.1406C225.219 55.6406 225.406 59 225.781 60.2188C226.188 61.4375 226.625 62.1875 227.094 62.4688C227.562 62.7188 228.156 62.8438 228.875 62.8438L231.219 62.6094C232.375 62.6094 232.953 63.0625 232.953 63.9688C232.953 65.125 231.906 65.7031 229.812 65.7031C228.625 65.7031 227.344 65.5781 225.969 65.3281C224.625 65.1094 223.172 65 221.609 65C220.047 65 218.562 65.1094 217.156 65.3281C215.75 65.5781 214.453 65.7031 213.266 65.7031ZM243.922 59.75C242.109 57.7188 240.703 55.3281 239.703 52.5781C238.734 49.8281 238.25 46.7812 238.25 43.4375C238.25 40.0625 238.828 36.9688 239.984 34.1562C241.141 31.3438 242.734 28.9375 244.766 26.9375C248.984 22.7812 254.188 20.7031 260.375 20.7031C265.5 20.7031 269.641 22.3906 272.797 25.7656C275.797 29.0156 277.297 33.0312 277.297 37.8125C277.297 39.375 277.078 40.4531 276.641 41.0469C276.234 41.6094 275.719 41.9531 275.094 42.0781C274.469 42.1719 273.609 42.2656 272.516 42.3594C271.422 42.4219 270.094 42.5 268.531 42.5938C266.969 42.6875 265.219 42.7812 263.281 42.875C261.375 42.9688 259.422 43.0781 257.422 43.2031C252.828 43.4844 249.141 43.7656 246.359 44.0469C247.047 52.4531 250.266 57.9062 256.016 60.4062C257.891 61.2188 259.891 61.625 262.016 61.625C266.516 61.625 270.078 60.3125 272.703 57.6875C273.828 56.5625 274.688 56 275.281 56C276.406 56 276.969 56.6719 276.969 58.0156C276.969 58.7031 276.5 59.5312 275.562 60.5C274.625 61.4688 273.281 62.4688 271.531 63.5C268.438 65.2812 264.828 66.1719 260.703 66.1719C256.578 66.1719 253.203 65.6094 250.578 64.4844C247.984 63.3281 245.766 61.75 243.922 59.75ZM246.266 40.5781C260.922 39.8281 268.641 39.0312 269.422 38.1875C269.703 37.875 269.844 36.9531 269.844 35.4219C269.844 33.8906 269.547 32.4062 268.953 30.9688C268.359 29.5 267.562 28.25 266.562 27.2188C264.5 25.125 261.938 24.0781 258.875 24.0781C255.406 24.0781 252.484 25.5312 250.109 28.4375C247.609 31.4688 246.328 35.5156 246.266 40.5781ZM289.25 62.4688C287.812 61.4375 286.688 60.3125 285.875 59.0938C285.062 57.8438 284.656 56.875 284.656 56.1875C284.656 55.4688 284.75 54.9375 284.938 54.5938C285.156 54.2188 285.438 53.875 285.781 53.5625C286.594 52.7812 287.375 52.3906 288.125 52.3906C288.906 52.3906 289.5 52.5781 289.906 52.9531C290.312 53.2969 290.688 54 291.031 55.0625C291.406 56.0938 291.922 57.0938 292.578 58.0625C293.266 59.0312 294.078 59.875 295.016 60.5938C297.047 62.125 299.531 62.8906 302.469 62.8906C305.062 62.8906 307.266 62.25 309.078 60.9688C310.984 59.6562 311.938 58.0156 311.938 56.0469C311.938 54.0469 311.078 52.2969 309.359 50.7969C307.516 49.2031 304.781 47.6875 301.156 46.25C297.531 44.7812 294.953 43.5469 293.422 42.5469C291.891 41.5469 290.641 40.4844 289.672 39.3594C287.828 37.2031 286.906 34.7344 286.906 31.9531C286.906 28.7656 288.344 26.1094 291.219 23.9844C294.125 21.8594 297.766 20.7969 302.141 20.7969C305.922 20.7969 309.109 21.5938 311.703 23.1875C313.953 24.5938 315.078 26.0781 315.078 27.6406C315.078 28.4531 314.656 29.1562 313.812 29.75C313 30.3125 312.219 30.5938 311.469 30.5938C310.75 30.5938 310.188 30.4531 309.781 30.1719C309.375 29.8594 308.766 29.0781 307.953 27.8281C306.359 25.3594 303.938 24.125 300.688 24.125C297.031 24.125 294.609 25.2188 293.422 27.4062C293.078 28.0312 292.906 28.7031 292.906 29.4219C292.906 30.1406 293.047 30.8438 293.328 31.5312C293.641 32.1875 294.203 32.875 295.016 33.5938C296.734 35.0312 299.891 36.7031 304.484 38.6094C313.484 42.3281 317.984 47.0938 317.984 52.9062C317.984 56.8125 316.406 60 313.25 62.4688C310.062 64.9375 305.969 66.1719 300.969 66.1719C296.531 66.1719 292.625 64.9375 289.25 62.4688ZM352.578 65.7031C350.547 65.7031 349.531 65.125 349.531 63.9688C349.531 63.0625 350.094 62.6094 351.219 62.6094L353.516 62.8438C355.203 62.8438 356.375 62.0312 357.031 60.4062C357.75 58.5938 358.109 55.1719 358.109 50.1406V17.0469C358.109 11.7969 357.844 8.51562 357.312 7.20312C356.781 5.89062 356.203 5.07813 355.578 4.76562C354.953 4.45312 354.172 4.29688 353.234 4.29688L351.219 4.53125C350.094 4.53125 349.531 4.07812 349.531 3.17188C349.531 2.01562 350.391 1.4375 352.109 1.4375C353.828 1.4375 355.328 1.5625 356.609 1.8125C357.891 2.0625 359.109 2.1875 360.266 2.1875C361.453 2.1875 362.531 2.125 363.5 2C364.469 1.875 365.484 1.75 366.547 1.625C369.547 1.21875 372.172 1.01562 374.422 1.01562C376.672 1.01562 378.922 1.34375 381.172 2C383.453 2.65625 385.406 3.59375 387.031 4.8125C390.469 7.34375 392.188 10.625 392.188 14.6562C392.188 20 389.922 24.5312 385.391 28.25C389.297 29.3438 392.578 31.5312 395.234 34.8125C398.016 38.2188 399.406 42.0156 399.406 46.2031C399.406 52.1406 397.438 56.9531 393.5 60.6406C389.562 64.3281 384.406 66.1719 378.031 66.1719C376.031 66.1719 373.703 66.0312 371.047 65.75C365.891 65.25 362.422 65 360.641 65L352.578 65.7031ZM365.469 27.3594C368.969 27.7031 371.812 27.875 374 27.875C377.156 27.875 379.094 27.8281 379.812 27.7344C380.531 27.6406 381.188 27.3281 381.781 26.7969C382.375 26.2656 382.922 25.5781 383.422 24.7344C384.578 22.7969 385.156 20.7344 385.156 18.5469C385.156 16.3594 384.781 14.4375 384.031 12.7812C383.281 11.0938 382.266 9.65625 380.984 8.46875C378.359 6.09375 375.062 4.90625 371.094 4.90625C369.188 4.90625 367.391 5.23438 365.703 5.89062C365.609 7.45312 365.547 8.64063 365.516 9.45312C365.516 10.2344 365.5 10.9375 365.469 11.5625C365.469 12.1875 365.469 12.75 365.469 13.25V27.3594ZM387.312 36.9219C386.031 35.2969 384.438 34 382.531 33.0312C380.656 32.0312 378.875 31.5312 377.188 31.5312H372.078C370.328 31.5312 368.125 31.6094 365.469 31.7656V43.3906C365.469 50.3906 365.578 55.7812 365.797 59.5625C368.578 61.3125 372.156 62.1875 376.531 62.1875C383.5 62.1875 388.078 59.6875 390.266 54.6875C390.984 53 391.344 51.0469 391.344 48.8281C391.344 46.5781 391 44.4375 390.312 42.4062C389.625 40.3438 388.625 38.5156 387.312 36.9219ZM449.188 21.1719C450.469 21.1719 451.109 21.5625 451.109 22.3438C451.109 23 450.516 23.5469 449.328 23.9844C448.172 24.3906 447.281 24.7812 446.656 25.1562C446.031 25.5 445.453 26 444.922 26.6562C443.828 28 442.672 30.3281 441.453 33.6406L434.422 52.7656C428.391 69.2031 424.031 79.0938 421.344 82.4375C418.688 85.8125 415.531 87.5 411.875 87.5C409.344 87.5 407.516 87.1562 406.391 86.4688C404.516 85.2812 403.578 84.0625 403.578 82.8125C403.578 81.9375 403.891 81.2188 404.516 80.6562C405.547 79.6875 406.484 79.2031 407.328 79.2031C408.203 79.2031 408.969 79.3438 409.625 79.625C410.281 79.9375 410.906 80.2656 411.5 80.6094C412.125 80.9844 412.688 81.3125 413.188 81.5938C413.688 81.9062 414.141 82.0625 414.547 82.0625C414.953 82.0625 415.375 82.0312 415.812 81.9688C416.281 81.9062 416.781 81.6875 417.312 81.3125C417.844 80.9688 418.422 80.4219 419.047 79.6719C419.672 78.9219 420.359 77.875 421.109 76.5312C422.766 73.5 424.625 69.2188 426.688 63.6875C425.344 62.6875 423.219 59.0781 420.312 52.8594L409.953 29.9844C409.016 27.9531 408.297 26.6562 407.797 26.0938C406.984 25.0625 405.891 24.3906 404.516 24.0781C403.172 23.7344 402.5 23.1406 402.5 22.2969C402.5 22.0156 402.672 21.7656 403.016 21.5469C403.328 21.2969 403.797 21.1719 404.422 21.1719L411.688 21.6875C413.594 21.6875 415.031 21.625 416 21.5C417.656 21.2812 419.016 21.1719 420.078 21.1719C422.203 21.1719 423.266 21.625 423.266 22.5312C423.266 23.4688 422.016 24 419.516 24.125C417.922 24.2188 417.016 24.6406 416.797 25.3906C416.734 25.6094 416.703 25.8438 416.703 26.0938C416.703 26.5 417.172 27.7188 418.109 29.75L429.547 55.5781C429.578 55.5781 429.594 55.5469 429.594 55.4844C429.594 55.4219 429.609 55.3594 429.641 55.2969L437.609 31.8125C438.078 30.4062 438.469 29.25 438.781 28.3438C439.125 27.4062 439.297 26.625 439.297 26C439.297 25.3438 439.078 24.8906 438.641 24.6406C438.203 24.3906 437.359 24.2188 436.109 24.125C433.766 23.9062 432.594 23.3594 432.594 22.4844C432.594 21.6094 433.656 21.1719 435.781 21.1719L443.75 21.6406L449.188 21.1719ZM539.234 35.0938C540.453 35.0938 541.062 35.5469 541.062 36.4531C541.062 36.8906 540.922 37.2344 540.641 37.4844C540.391 37.7031 539.969 37.9375 539.375 38.1875C538.812 38.4062 538.375 38.7031 538.062 39.0781C537.781 39.4219 537.547 39.9531 537.359 40.6719C537.047 42.0469 536.891 43.7031 536.891 45.6406C536.891 47.5781 536.906 48.8594 536.938 49.4844C536.969 50.0781 537.016 50.6875 537.078 51.3125C537.234 53.5938 537.391 55.0938 537.547 55.8125C537.703 56.5 537.781 57.1719 537.781 57.8281C537.781 58.4844 537.375 59.1875 536.562 59.9375C535.75 60.6875 534.672 61.3906 533.328 62.0469C531.984 62.7031 530.438 63.2969 528.688 63.8281C526.938 64.3281 525.141 64.7656 523.297 65.1406C519.422 65.9219 515.859 66.3125 512.609 66.3125C501.391 66.3125 492.547 63.1094 486.078 56.7031C480.172 50.8281 477.219 43.4062 477.219 34.4375C477.219 24.3438 480.484 16.2344 487.016 10.1094C493.609 3.95313 502.344 0.875 513.219 0.875C521.281 0.875 527.703 1.84375 532.484 3.78125C533.422 4.1875 534.062 4.60938 534.406 5.04688C535.062 5.89062 535.438 7.20312 535.531 8.98438C535.656 10.7656 535.734 12 535.766 12.6875C535.891 14.25 535.953 15.2188 535.953 15.5938C535.953 16.8125 535.531 17.4219 534.688 17.4219C533.875 17.4219 533.234 16.6562 532.766 15.125C532.328 13.5625 531.438 12.0937 530.094 10.7188C528.75 9.34375 527.141 8.1875 525.266 7.25C521.516 5.375 517.359 4.4375 512.797 4.4375C508.234 4.4375 504.359 5.0625 501.172 6.3125C498.016 7.53125 495.328 9.29688 493.109 11.6094C488.453 16.4219 486.125 22.9219 486.125 31.1094C486.125 39.8594 488.797 47.2656 494.141 53.3281C496.672 56.1719 499.672 58.4219 503.141 60.0781C506.641 61.7031 510.453 62.5156 514.578 62.5156C521.109 62.5156 525.375 61.2812 527.375 58.8125C528.656 57.1875 529.297 54.9688 529.297 52.1562V41.9844C529.297 40.5156 528.953 39.6094 528.266 39.2656C527.359 38.7969 526.109 38.5625 524.516 38.5625C521.828 38.5625 520.484 37.9688 520.484 36.7812C520.484 35.5938 521.547 35 523.672 35L533.094 35.6094L539.234 35.0938ZM549.781 65.7031C547.688 65.7031 546.641 65.125 546.641 63.9688C546.641 63.0625 547.219 62.6094 548.375 62.6094L550.719 62.8438C551.438 62.8438 552.031 62.7188 552.5 62.4688C552.969 62.1875 553.328 61.6094 553.578 60.7344C554.078 59.1406 554.328 55.6094 554.328 50.1406V36.125C554.328 32.9375 554.125 30.9531 553.719 30.1719C553.344 29.3594 552.875 28.8125 552.312 28.5312C551.781 28.2188 550.891 27.9688 549.641 27.7812C548.422 27.5938 547.812 27.1094 547.812 26.3281C547.812 25.6094 548.609 25.0938 550.203 24.7812C553.922 24 556.484 23.2188 557.891 22.4375C559.797 21.3438 561.094 20.7969 561.781 20.7969C562.5 20.7969 562.859 21.1562 562.859 21.875C562.859 22.2188 562.781 22.5781 562.625 22.9531C562.5 23.3281 562.359 23.7812 562.203 24.3125C561.953 25.375 561.766 27.375 561.641 30.3125C564.359 25.75 567.641 22.9062 571.484 21.7812C572.609 21.4375 573.859 21.2656 575.234 21.2656C576.641 21.2656 577.875 21.7656 578.938 22.7656C580.031 23.7656 580.578 24.8281 580.578 25.9531C580.578 27.0781 580.453 27.9062 580.203 28.4375C579.953 28.9688 579.641 29.4219 579.266 29.7969C578.453 30.6094 577.719 31.0156 577.062 31.0156C576.438 31.0156 575.953 30.8594 575.609 30.5469C575.266 30.2031 574.875 29.5938 574.438 28.7188C573.656 27.1562 572.781 26.375 571.812 26.375C570.844 26.375 569.922 26.5938 569.047 27.0312C568.172 27.4375 567.297 28.0625 566.422 28.9062C564.516 30.6875 562.906 33.1094 561.594 36.1719V50.1406C561.594 56.0781 561.75 59.5781 562.062 60.6406C562.406 61.6719 562.812 62.2969 563.281 62.5156C563.781 62.7031 564.453 62.7969 565.297 62.7969L569.469 62.4219C570.094 62.4219 570.594 62.5781 570.969 62.8906C571.344 63.1719 571.531 63.5312 571.531 63.9688C571.531 65.125 570.391 65.7031 568.109 65.7031L558.219 65C556.625 65 555.109 65.1094 553.672 65.3281C552.266 65.5781 550.969 65.7031 549.781 65.7031ZM590.984 59.75C589.172 57.7188 587.766 55.3281 586.766 52.5781C585.797 49.8281 585.312 46.7812 585.312 43.4375C585.312 40.0625 585.891 36.9688 587.047 34.1562C588.203 31.3438 589.797 28.9375 591.828 26.9375C596.047 22.7812 601.25 20.7031 607.438 20.7031C612.562 20.7031 616.703 22.3906 619.859 25.7656C622.859 29.0156 624.359 33.0312 624.359 37.8125C624.359 39.375 624.141 40.4531 623.703 41.0469C623.297 41.6094 622.781 41.9531 622.156 42.0781C621.531 42.1719 620.672 42.2656 619.578 42.3594C618.484 42.4219 617.156 42.5 615.594 42.5938C614.031 42.6875 612.281 42.7812 610.344 42.875C608.438 42.9688 606.484 43.0781 604.484 43.2031C599.891 43.4844 596.203 43.7656 593.422 44.0469C594.109 52.4531 597.328 57.9062 603.078 60.4062C604.953 61.2188 606.953 61.625 609.078 61.625C613.578 61.625 617.141 60.3125 619.766 57.6875C620.891 56.5625 621.75 56 622.344 56C623.469 56 624.031 56.6719 624.031 58.0156C624.031 58.7031 623.562 59.5312 622.625 60.5C621.688 61.4688 620.344 62.4688 618.594 63.5C615.5 65.2812 611.891 66.1719 607.766 66.1719C603.641 66.1719 600.266 65.6094 597.641 64.4844C595.047 63.3281 592.828 61.75 590.984 59.75ZM593.328 40.5781C607.984 39.8281 615.703 39.0312 616.484 38.1875C616.766 37.875 616.906 36.9531 616.906 35.4219C616.906 33.8906 616.609 32.4062 616.016 30.9688C615.422 29.5 614.625 28.25 613.625 27.2188C611.562 25.125 609 24.0781 605.938 24.0781C602.469 24.0781 599.547 25.5312 597.172 28.4375C594.672 31.4688 593.391 35.5156 593.328 40.5781ZM672.781 21.1719C674.062 21.1719 674.703 21.5625 674.703 22.3438C674.703 23 674.109 23.5469 672.922 23.9844C671.766 24.3906 670.875 24.7812 670.25 25.1562C669.625 25.5 669.047 26 668.516 26.6562C667.422 28 666.266 30.3281 665.047 33.6406L658.016 52.7656C651.984 69.2031 647.625 79.0938 644.938 82.4375C642.281 85.8125 639.125 87.5 635.469 87.5C632.938 87.5 631.109 87.1562 629.984 86.4688C628.109 85.2812 627.172 84.0625 627.172 82.8125C627.172 81.9375 627.484 81.2188 628.109 80.6562C629.141 79.6875 630.078 79.2031 630.922 79.2031C631.797 79.2031 632.562 79.3438 633.219 79.625C633.875 79.9375 634.5 80.2656 635.094 80.6094C635.719 80.9844 636.281 81.3125 636.781 81.5938C637.281 81.9062 637.734 82.0625 638.141 82.0625C638.547 82.0625 638.969 82.0312 639.406 81.9688C639.875 81.9062 640.375 81.6875 640.906 81.3125C641.438 80.9688 642.016 80.4219 642.641 79.6719C643.266 78.9219 643.953 77.875 644.703 76.5312C646.359 73.5 648.219 69.2188 650.281 63.6875C648.938 62.6875 646.812 59.0781 643.906 52.8594L633.547 29.9844C632.609 27.9531 631.891 26.6562 631.391 26.0938C630.578 25.0625 629.484 24.3906 628.109 24.0781C626.766 23.7344 626.094 23.1406 626.094 22.2969C626.094 22.0156 626.266 21.7656 626.609 21.5469C626.922 21.2969 627.391 21.1719 628.016 21.1719L635.281 21.6875C637.188 21.6875 638.625 21.625 639.594 21.5C641.25 21.2812 642.609 21.1719 643.672 21.1719C645.797 21.1719 646.859 21.625 646.859 22.5312C646.859 23.4688 645.609 24 643.109 24.125C641.516 24.2188 640.609 24.6406 640.391 25.3906C640.328 25.6094 640.297 25.8438 640.297 26.0938C640.297 26.5 640.766 27.7188 641.703 29.75L653.141 55.5781C653.172 55.5781 653.188 55.5469 653.188 55.4844C653.188 55.4219 653.203 55.3594 653.234 55.2969L661.203 31.8125C661.672 30.4062 662.062 29.25 662.375 28.3438C662.719 27.4062 662.891 26.625 662.891 26C662.891 25.3438 662.672 24.8906 662.234 24.6406C661.797 24.3906 660.953 24.2188 659.703 24.125C657.359 23.9062 656.188 23.3594 656.188 22.4844C656.188 21.6094 657.25 21.1719 659.375 21.1719L667.344 21.6406L672.781 21.1719Z" fill="black"/>
</svg>
