<svg width="451" height="198" viewBox="0 0 451 198" fill="none" xmlns="http://www.w3.org/2000/svg">
<path d="M20.9339 48.776C19.8459 48.776 18.9819 48.36 18.3419 47.528C17.7659 46.632 17.4779 45.448 17.4779 43.976C17.4779 40.712 18.8219 39.08 21.5099 39.08H31.6859C34.0539 39.08 35.7179 38.408 36.6779 37.064C37.7019 35.72 38.2139 34.248 38.2139 32.648V16.904C38.2139 15.304 37.7019 13.832 36.6779 12.488C35.7179 11.144 34.0539 10.472 31.6859 10.472H11.5259V73.16C11.5259 76.232 9.60588 77.768 5.76588 77.768C2.05388 77.768 0.197875 76.232 0.197875 73.16V6.536C0.197875 4.232 0.773875 2.696 1.92588 1.92799C3.07788 1.16 4.48588 0.775997 6.14988 0.775997H34.1819C35.7819 0.775997 37.4779 1.128 39.2699 1.832C41.0619 2.536 42.7899 3.432 44.4539 4.51999H44.3579C46.0219 5.73599 47.3019 7.33599 48.1979 9.32C49.0939 11.24 49.5419 13.48 49.5419 16.04V33.416C49.5419 38.6 47.8139 42.472 44.3579 45.032C42.6939 46.248 40.9979 47.176 39.2699 47.816C37.5419 48.456 35.8459 48.776 34.1819 48.776H20.9339ZM89.3811 10.184L68.3571 74.696V74.6C67.9731 75.56 67.4291 76.36 66.7251 77C66.0851 77.576 65.2851 77.864 64.3251 77.864C63.8131 77.864 63.3011 77.8 62.7891 77.672C62.3411 77.608 61.8611 77.512 61.3491 77.384H61.4451C57.7971 76.232 56.4531 74.184 57.4131 71.24L79.3011 4.712C79.6211 3.688 80.1651 2.824 80.9331 2.12C81.7651 1.416 82.7251 0.999998 83.8131 0.871996C84.9011 0.679995 85.9571 0.551994 86.9811 0.487995C88.0051 0.359997 88.8051 0.295998 89.3811 0.295998C89.9571 0.295998 90.7571 0.359997 91.7811 0.487995C92.8051 0.551994 93.8611 0.647995 94.9491 0.775997C95.8451 0.903996 96.7091 1.384 97.5411 2.216C98.4371 3.048 99.1091 3.88 99.5571 4.712C103.141 15.72 106.757 26.824 110.405 38.024C114.117 49.16 117.765 60.232 121.349 71.24C122.245 74.184 120.901 76.232 117.317 77.384C116.805 77.512 116.325 77.608 115.877 77.672C115.493 77.8 115.045 77.864 114.533 77.864C113.637 77.864 112.805 77.576 112.037 77C111.333 76.36 110.821 75.56 110.501 74.6V74.696L89.3811 10.184ZM96.5811 53.96C96.5811 56.008 95.8451 57.768 94.3731 59.24C92.9651 60.648 91.2371 61.352 89.1891 61.352C87.1411 61.352 85.4131 60.648 84.0051 59.24C82.5971 57.768 81.8931 56.008 81.8931 53.96C81.8931 51.912 82.5971 50.184 84.0051 48.776C85.4131 47.304 87.1411 46.568 89.1891 46.568C91.2371 46.568 92.9651 47.304 94.3731 48.776C95.8451 50.184 96.5811 51.912 96.5811 53.96ZM166.33 33.128C167.994 33.128 169.722 33.48 171.514 34.184C173.306 34.888 175.034 35.816 176.698 36.968H176.602C178.266 38.12 179.546 39.688 180.442 41.672C181.338 43.656 181.786 45.928 181.786 48.488V61.64C181.786 66.824 180.058 70.696 176.602 73.256C174.938 74.472 173.21 75.432 171.418 76.136C169.69 76.776 167.994 77.096 166.33 77.096H145.402C143.738 77.096 142.01 76.776 140.218 76.136C138.49 75.432 136.794 74.472 135.13 73.256C131.674 70.696 129.946 66.824 129.946 61.64V55.304C129.946 52.296 131.834 50.792 135.61 50.792C139.45 50.792 141.37 52.296 141.37 55.304V60.872C141.37 62.536 141.85 64.04 142.81 65.384C143.77 66.728 145.434 67.4 147.802 67.4H163.93C166.298 67.4 167.962 66.728 168.922 65.384C169.882 64.04 170.362 62.536 170.362 60.872V49.256C170.362 47.656 169.882 46.184 168.922 44.84C167.962 43.432 166.298 42.728 163.93 42.728H145.402C142.074 42.728 138.65 41.512 135.13 39.08C131.674 36.392 129.946 32.52 129.946 27.464V16.04C129.946 13.48 130.394 11.24 131.29 9.32C132.186 7.33599 133.466 5.73599 135.13 4.51999H135.034C136.698 3.432 138.426 2.536 140.218 1.832C142.01 1.128 143.738 0.775997 145.402 0.775997H166.33C167.994 0.775997 169.722 1.128 171.514 1.832C173.306 2.536 175.034 3.432 176.698 4.51999H176.602C178.266 5.73599 179.546 7.33599 180.442 9.32C181.338 11.24 181.786 13.48 181.786 16.04V21.704C181.786 24.712 179.866 26.216 176.026 26.216C172.25 26.216 170.362 24.712 170.362 21.704V16.904C170.362 15.304 169.882 13.832 168.922 12.488C167.962 11.144 166.298 10.472 163.93 10.472H147.802C145.434 10.472 143.77 11.144 142.81 12.488C141.85 13.832 141.37 15.304 141.37 16.904V26.696C141.37 28.36 141.85 29.864 142.81 31.208C143.77 32.488 145.434 33.128 147.802 33.128H166.33ZM222.515 73.16C222.515 76.232 220.595 77.768 216.755 77.768C212.979 77.768 211.091 76.232 211.091 73.16V10.472H194.291C191.987 10.472 190.771 8.84 190.643 5.576C190.643 2.376 191.859 0.775997 194.291 0.775997H239.315C241.747 0.775997 242.899 2.376 242.771 5.576C242.771 8.84 241.619 10.472 239.315 10.472H222.515V73.16ZM278.52 45.416H271.128C270.04 45.416 269.176 45 268.536 44.168C267.96 43.272 267.672 42.088 267.672 40.616C267.672 37.352 269.016 35.72 271.704 35.72H282.936C285.304 35.72 286.968 35.048 287.928 33.704C288.888 32.36 289.368 30.888 289.368 29.288V16.904C289.368 15.304 288.888 13.832 287.928 12.488C286.968 11.144 285.304 10.472 282.936 10.472H262.68V73.064C262.68 76.136 260.792 77.672 257.016 77.672C253.24 77.672 251.352 76.136 251.352 73.064V6.536C251.352 4.232 251.928 2.696 253.08 1.92799C254.296 1.16 255.736 0.775997 257.4 0.775997H285.336C287 0.775997 288.728 1.128 290.52 1.832C292.312 2.536 294.04 3.432 295.704 4.51999H295.608C297.272 5.73599 298.552 7.33599 299.448 9.32C300.344 11.24 300.792 13.48 300.792 16.04V30.056C300.792 35.24 299.064 39.112 295.608 41.672C294.904 42.184 294.136 42.664 293.304 43.112C292.536 43.56 291.736 44.008 290.904 44.456L306.264 69.8C306.456 70.12 306.648 70.536 306.84 71.048C307.032 71.56 307.128 71.976 307.128 72.296C307.128 73.832 306.04 75.304 303.864 76.712V76.616C302.392 77.512 301.144 77.96 300.12 77.96C298.648 77.96 297.464 77.224 296.568 75.752L296.664 75.848L278.52 45.416ZM327.847 72.968C327.847 76.04 325.927 77.576 322.087 77.576C318.311 77.576 316.423 76.04 316.423 72.968V4.904C316.423 1.832 318.311 0.295998 322.087 0.295998C325.927 0.295998 327.847 1.832 327.847 4.904V72.968ZM349.371 77.096C347.003 77.096 345.403 76.488 344.571 75.272C343.739 74.056 343.323 72.712 343.323 71.24V6.536C343.323 5.064 343.739 3.752 344.571 2.6C345.403 1.384 347.003 0.775997 349.371 0.775997H382.779C385.147 0.775997 386.395 2.376 386.523 5.576C386.651 8.84 385.403 10.472 382.779 10.472H354.651V67.4H384.507C386.875 67.4 388.091 68.968 388.155 72.104C388.283 75.432 387.067 77.096 384.507 77.096H349.371ZM379.227 37.352C379.227 39.592 378.427 41.48 376.827 43.016C375.291 44.552 373.403 45.32 371.163 45.32C368.987 45.32 367.131 44.552 365.595 43.016C364.059 41.48 363.291 39.592 363.291 37.352C363.291 35.112 364.059 33.224 365.595 31.688C367.131 30.152 368.987 29.384 371.163 29.384C373.403 29.384 375.291 30.152 376.827 31.688C378.427 33.224 379.227 35.112 379.227 37.352ZM434.923 33.128C436.587 33.128 438.315 33.48 440.107 34.184C441.899 34.888 443.627 35.816 445.291 36.968H445.195C446.859 38.12 448.139 39.688 449.035 41.672C449.931 43.656 450.379 45.928 450.379 48.488V61.64C450.379 66.824 448.651 70.696 445.195 73.256C443.531 74.472 441.803 75.432 440.011 76.136C438.283 76.776 436.587 77.096 434.923 77.096H413.995C412.331 77.096 410.603 76.776 408.811 76.136C407.083 75.432 405.387 74.472 403.723 73.256C400.267 70.696 398.539 66.824 398.539 61.64V55.304C398.539 52.296 400.427 50.792 404.203 50.792C408.043 50.792 409.963 52.296 409.963 55.304V60.872C409.963 62.536 410.443 64.04 411.403 65.384C412.363 66.728 414.027 67.4 416.395 67.4H432.523C434.891 67.4 436.555 66.728 437.515 65.384C438.475 64.04 438.955 62.536 438.955 60.872V49.256C438.955 47.656 438.475 46.184 437.515 44.84C436.555 43.432 434.891 42.728 432.523 42.728H413.995C410.667 42.728 407.243 41.512 403.723 39.08C400.267 36.392 398.539 32.52 398.539 27.464V16.04C398.539 13.48 398.987 11.24 399.883 9.32C400.779 7.33599 402.059 5.73599 403.723 4.51999H403.627C405.291 3.432 407.019 2.536 408.811 1.832C410.603 1.128 412.331 0.775997 413.995 0.775997H434.923C436.587 0.775997 438.315 1.128 440.107 1.832C441.899 2.536 443.627 3.432 445.291 4.51999H445.195C446.859 5.73599 448.139 7.33599 449.035 9.32C449.931 11.24 450.379 13.48 450.379 16.04V21.704C450.379 24.712 448.459 26.216 444.619 26.216C440.843 26.216 438.955 24.712 438.955 21.704V16.904C438.955 15.304 438.475 13.832 437.515 12.488C436.555 11.144 434.891 10.472 432.523 10.472H416.395C414.027 10.472 412.363 11.144 411.403 12.488C410.443 13.832 409.963 15.304 409.963 16.904V26.696C409.963 28.36 410.443 29.864 411.403 31.208C412.363 32.488 414.027 33.128 416.395 33.128H434.923ZM87.2856 168.68C87.2856 167.208 86.7416 165.8 85.6536 164.456C84.5656 163.048 82.6456 162.248 79.8936 162.056C78.1016 164.232 75.9256 165.32 73.3656 165.32C71.1896 165.32 69.3336 164.552 67.7976 163.016C66.2616 161.48 65.4936 159.592 65.4936 157.352C65.4936 155.112 66.2616 153.224 67.7976 151.688C69.3336 150.152 71.1896 149.384 73.3656 149.384C74.5176 149.384 75.6376 149.704 76.7256 150.344C77.8776 150.984 78.9016 151.752 79.7976 152.648C81.2056 152.584 82.2936 152.36 83.0616 151.976C83.8296 151.592 84.3736 151.144 84.6936 150.632C85.0776 150.056 85.3016 149.416 85.3656 148.712C85.4296 148.008 85.4616 147.304 85.4616 146.6V136.904C85.4616 135.304 84.9496 133.832 83.9256 132.488C82.9656 131.144 81.3016 130.472 78.9336 130.472H58.8696L58.7736 193.832C58.7736 195.112 58.1656 196.104 56.9496 196.808C55.7976 197.448 54.5176 197.768 53.1096 197.768C49.3336 197.768 47.4456 196.232 47.4456 193.16V126.536C47.4456 124.232 48.0216 122.696 49.1736 121.928C50.3896 121.16 51.8296 120.776 53.4936 120.776H81.3336C82.9976 120.776 84.7576 121.096 86.6136 121.736C88.5336 122.376 90.3256 123.24 91.9896 124.328H91.8936C93.5576 125.544 94.7736 127.144 95.5416 129.128C96.3736 131.112 96.7896 133.416 96.7896 136.04V146.888C96.7896 149.448 96.2456 151.56 95.1576 153.224C94.0696 154.824 92.9176 156.104 91.7016 157.064C92.5336 157.576 93.3336 158.12 94.1016 158.696C94.8696 159.208 95.5096 159.784 96.0216 160.424C96.8536 161.32 97.4936 162.376 97.9416 163.592C98.4536 164.808 98.7096 166.248 98.7096 167.912V181.64C98.7096 186.888 96.6616 190.76 92.5656 193.256C90.5176 194.536 88.5656 195.496 86.7096 196.136C84.9176 196.776 83.1256 197.096 81.3336 197.096H67.1256C66.0376 197.096 65.1736 196.648 64.5336 195.752C63.9576 194.856 63.6696 193.672 63.6696 192.2C63.6696 189 65.0136 187.4 67.7016 187.4H80.8536C83.2216 187.4 84.8856 186.728 85.8456 185.384C86.8056 184.04 87.2856 182.536 87.2856 180.872V168.68ZM141.103 193.16C141.103 196.232 139.215 197.768 135.439 197.768C131.663 197.768 129.775 196.232 129.775 193.16V167.624L108.271 126.728C107.887 125.896 107.695 125.032 107.695 124.136C107.695 122.28 108.783 120.904 110.959 120.008H110.863C112.271 119.496 113.391 119.24 114.223 119.24C115.887 119.24 117.167 120.072 118.063 121.736L135.535 154.568C136.815 152.136 138.191 149.544 139.663 146.792C141.135 143.976 142.607 141.128 144.079 138.248C145.615 135.368 147.119 132.52 148.591 129.704C150.063 126.888 151.471 124.232 152.815 121.736C153.327 120.968 153.871 120.36 154.447 119.912C155.087 119.464 155.855 119.24 156.751 119.24C157.647 119.24 158.703 119.496 159.919 120.008H159.823C162.063 120.968 163.183 122.376 163.183 124.232C163.183 124.616 163.151 125.032 163.087 125.48C163.023 125.864 162.863 126.28 162.607 126.728C162.031 127.88 161.295 129.288 160.399 130.952C159.567 132.616 158.351 134.952 156.751 137.96C155.215 140.904 153.199 144.776 150.703 149.576C148.207 154.312 145.007 160.424 141.103 167.912V193.16ZM241.027 162.344C241.027 159.208 242.947 157.64 246.787 157.64C250.563 157.64 252.451 159.144 252.451 162.152V181.64C252.451 186.824 250.723 190.696 247.267 193.256C245.603 194.472 243.875 195.432 242.083 196.136C240.355 196.776 238.659 197.096 236.995 197.096H217.027C215.363 197.096 213.635 196.776 211.843 196.136C210.115 195.432 208.419 194.472 206.755 193.256C205.091 191.976 203.811 190.408 202.915 188.552C202.019 186.632 201.571 184.328 201.571 181.64V136.04C201.571 133.416 202.019 131.144 202.915 129.224C203.875 127.304 205.155 125.736 206.755 124.52H206.659C208.323 123.432 210.051 122.536 211.843 121.832C213.635 121.128 215.363 120.776 217.027 120.776H236.035C237.699 120.776 239.427 121.128 241.219 121.832C243.011 122.536 244.739 123.432 246.403 124.52H246.307C249.699 127.016 251.395 130.856 251.395 136.04V142.664C251.395 145.736 249.507 147.272 245.731 147.272C241.955 147.272 240.067 145.736 240.067 142.664V136.904C240.067 135.304 239.587 133.832 238.627 132.488C237.667 131.144 236.003 130.472 233.635 130.472H219.523C217.091 130.472 215.395 131.144 214.435 132.488C213.475 133.832 212.995 135.304 212.995 136.904V180.872C212.995 181.704 213.091 182.504 213.283 183.272C213.539 184.04 213.923 184.744 214.435 185.384C214.947 185.96 215.619 186.44 216.451 186.824C217.283 187.208 218.307 187.4 219.523 187.4H234.595C236.963 187.4 238.627 186.728 239.587 185.384C240.547 184.04 241.027 182.536 241.027 180.872V162.344ZM236.515 161.288C236.515 162.376 236.291 163.432 235.843 164.456C235.459 165.416 234.883 166.248 234.115 166.952C233.411 167.656 232.579 168.232 231.619 168.68C230.659 169.064 229.603 169.256 228.451 169.256C226.275 169.256 224.419 168.488 222.883 166.952C221.347 165.416 220.579 163.528 220.579 161.288C220.579 159.112 221.347 157.256 222.883 155.72C224.419 154.184 226.275 153.416 228.451 153.416C229.603 153.416 230.659 153.64 231.619 154.088C232.579 154.472 233.411 155.016 234.115 155.72C234.883 156.424 235.459 157.256 235.843 158.216C236.291 159.176 236.515 160.2 236.515 161.288ZM294.364 165.416H286.972C285.884 165.416 285.02 165 284.38 164.168C283.804 163.272 283.516 162.088 283.516 160.616C283.516 157.352 284.86 155.72 287.548 155.72H298.78C301.148 155.72 302.812 155.048 303.772 153.704C304.732 152.36 305.212 150.888 305.212 149.288V136.904C305.212 135.304 304.732 133.832 303.772 132.488C302.812 131.144 301.148 130.472 298.78 130.472H278.524V193.064C278.524 196.136 276.636 197.672 272.86 197.672C269.084 197.672 267.196 196.136 267.196 193.064V126.536C267.196 124.232 267.772 122.696 268.924 121.928C270.14 121.16 271.58 120.776 273.244 120.776H301.18C302.844 120.776 304.572 121.128 306.364 121.832C308.156 122.536 309.884 123.432 311.548 124.52H311.452C313.116 125.736 314.396 127.336 315.292 129.32C316.188 131.24 316.636 133.48 316.636 136.04V150.056C316.636 155.24 314.908 159.112 311.452 161.672C310.748 162.184 309.98 162.664 309.148 163.112C308.38 163.56 307.58 164.008 306.748 164.456L322.108 189.8C322.3 190.12 322.492 190.536 322.684 191.048C322.876 191.56 322.972 191.976 322.972 192.296C322.972 193.832 321.884 195.304 319.708 196.712V196.616C318.236 197.512 316.988 197.96 315.964 197.96C314.492 197.96 313.308 197.224 312.412 195.752L312.508 195.848L294.364 165.416ZM338.027 197.096C335.659 197.096 334.059 196.488 333.227 195.272C332.395 194.056 331.979 192.712 331.979 191.24V126.536C331.979 125.064 332.395 123.752 333.227 122.6C334.059 121.384 335.659 120.776 338.027 120.776H371.435C373.803 120.776 375.051 122.376 375.179 125.576C375.307 128.84 374.059 130.472 371.435 130.472H343.307V187.4H373.163C375.531 187.4 376.747 188.968 376.811 192.104C376.939 195.432 375.723 197.096 373.163 197.096H338.027ZM367.883 157.352C367.883 159.592 367.083 161.48 365.483 163.016C363.947 164.552 362.059 165.32 359.819 165.32C357.643 165.32 355.787 164.552 354.251 163.016C352.715 161.48 351.947 159.592 351.947 157.352C351.947 155.112 352.715 153.224 354.251 151.688C355.787 150.152 357.643 149.384 359.819 149.384C362.059 149.384 363.947 150.152 365.483 151.688C367.083 153.224 367.883 155.112 367.883 157.352ZM415.228 193.16C415.228 196.232 413.34 197.768 409.564 197.768C405.788 197.768 403.9 196.232 403.9 193.16V167.624L382.396 126.728C382.012 125.896 381.82 125.032 381.82 124.136C381.82 122.28 382.908 120.904 385.084 120.008H384.988C386.396 119.496 387.516 119.24 388.348 119.24C390.012 119.24 391.292 120.072 392.188 121.736L409.66 154.568C410.94 152.136 412.316 149.544 413.788 146.792C415.26 143.976 416.732 141.128 418.204 138.248C419.74 135.368 421.244 132.52 422.716 129.704C424.188 126.888 425.596 124.232 426.94 121.736C427.452 120.968 427.996 120.36 428.572 119.912C429.212 119.464 429.98 119.24 430.876 119.24C431.772 119.24 432.828 119.496 434.044 120.008H433.948C436.188 120.968 437.308 122.376 437.308 124.232C437.308 124.616 437.276 125.032 437.212 125.48C437.148 125.864 436.988 126.28 436.732 126.728C436.156 127.88 435.42 129.288 434.524 130.952C433.692 132.616 432.476 134.952 430.876 137.96C429.34 140.904 427.324 144.776 424.828 149.576C422.332 154.312 419.132 160.424 415.228 167.912V193.16Z" fill="#7B0CD1"/>
</svg>
